<?xml version="1.0" encoding="UTF-8"?>
<svg id="_レイヤー_2" xmlns="http://www.w3.org/2000/svg" viewBox="0 0 422.54 423.31">
<g id="_レイヤー_6">
<g id="round_logo_text">
<path d="M80.09,87.66c-1.35-1.47-3.54-2-5.44-1.3-.6.22-1.15.56-1.63.99l-6.26,5.75-17.58-19.16,39.05-35.84,17.58,19.16-6.26,5.75c-2.03,1.86-2.17,5.03-.3,7.06l16.9,18.42-19.16,17.58-16.9-18.42Z" style="fill:#00bf02; stroke-width:0px;"/>
<path d="M95.92,56.84l-1.11,1.01c-4.91,4.5-5.19,12.09-.73,16.96l12.17,13.26-8.84,8.11-12.17-13.26c-4.46-4.86-12.09-5.19-16.96-.73l-1.11,1.01-8.11-8.84,28.73-26.37,8.11,8.84Z" style="fill:#fff; stroke-width:0px;"/>
<rect x="100.67" y="21.94" width="50" height="56" transform="translate(-8.77 64.48) rotate(-27.84)" style="fill:#00bf02; stroke-width:0px;"/>
<path d="M131.78,22.96l4.9,9.28-15.92,8.41c-1.49.78-2.04,2.57-1.25,4.05.76,1.43,2.57,2.04,4.05,1.25l15.92-8.41,4.2,7.96-15.91,8.41c-1.49.78-2.04,2.57-1.25,4.05.76,1.43,2.57,2.04,4.05,1.25l15.92-8.41,4.9,9.28-31.83,16.81-19.61-37.14,31.83-16.81Z" style="fill:#fff; stroke-width:0px;"/><polygon points="175.28 60.92 150.04 67.15 136.62 12.79 185.16 .81 198.58 55.17 175.28 60.92" style="fill:#00bf02; stroke-width:0px;"/>
<path d="M180.05,9.28l10.06,40.78-11.65,2.87-1.44-5.82c-.8-3.26-4.06-5.18-7.26-4.39-3.26.8-5.19,4-4.39,7.26l1.44,5.83-11.65,2.87-10.06-40.78,34.95-8.63ZM171.99,26.72c-.8-3.26-4.06-5.18-7.26-4.39-3.26.81-5.19,4-4.39,7.26.79,3.2,4,5.19,7.26,4.39,3.2-.79,5.18-4.06,4.39-7.26Z" style="fill:#fff; stroke-width:0px;"/><polygon points="211.16 56.63 186.67 55.98 188.15 0 245.63 1.52 244.15 57.5 211.16 56.63" style="fill:#00bf02; stroke-width:0px;"/><path d="M237.33,50.32l-10.5-.28.64-23.99c.04-1.68-1.3-3.04-2.92-3.08-1.68-.04-3.03,1.24-3.08,2.92l-.64,23.99-10.5-.28.64-23.99c.04-1.68-1.3-3.04-2.92-3.08-1.68-.04-3.03,1.24-3.08,2.92l-.64,23.99-10.5-.28,1.11-41.98,43.48,1.15-1.11,41.98Z" style="fill:#fff; stroke-width:0px;"/><rect x="319.65" y="61.1" width="56" height="57.5" transform="translate(28.48 254.37) rotate(-41.76)" style="fill:#00bf02; stroke-width:0px;"/><path d="M348.83,59.64l6.99,7.83-17.9,15.98c-1.25,1.12-1.36,2.98-.24,4.24,1.08,1.21,2.98,1.36,4.23.24l17.9-15.98,6.99,7.83-17.9,15.98c-1.25,1.12-1.36,2.98-.24,4.24,1.08,1.21,2.98,1.36,4.24.24l17.9-15.98,6.99,7.83-31.33,27.97-28.97-32.45,31.33-27.97Z" style="fill:#fff; stroke-width:0px;"/><polygon points="338.57 120.17 388.74 95.3 410.95 140.09 389 150.97 360.78 164.97 338.57 120.17" style="fill:#00bf02; stroke-width:0px;"/><path d="M401.57,136.93l-9.41,4.66-8-16.12c-.75-1.51-2.51-2.1-4.02-1.36-1.45.72-2.1,2.51-1.35,4.02l8,16.12-8.06,4-8-16.12c-.75-1.51-2.51-2.1-4.02-1.35-1.45.72-2.1,2.51-1.35,4.02l8,16.12-9.41,4.66-15.99-32.25,37.62-18.66,15.99,32.25Z" style="fill:#fff; stroke-width:0px;"/><polygon points="406.24 194.37 367.66 202.85 356.92 154.02 411.61 141.99 422.35 190.82 406.24 194.37" style="fill:#00bf02; stroke-width:0px;"/><path d="M414.01,185.49l-10.25,2.26-3.87-17.58c-.36-1.64-1.93-2.65-3.57-2.29-1.58.35-2.65,1.93-2.29,3.58l3.87,17.58-8.79,1.93-3.87-17.58c-.36-1.64-1.93-2.65-3.58-2.28-1.58.35-2.65,1.93-2.29,3.57l3.87,17.58-10.26,2.26-7.74-35.16,41.02-9.03,7.74,35.16Z" style="fill:#fff; stroke-width:0px;"/><rect x="368.77" y="189.1" width="50" height="56" transform="translate(164.5 603.91) rotate(-88.21)" style="fill:#00bf02; stroke-width:0px;"/><path d="M415.32,199.76l-.37,11.99-3-.09c-3.3-.1-6.08,2.45-6.18,5.81-.1,3.3,2.51,6.08,5.81,6.18l3,.09-.37,11.99-14.99-.47c.1-3.36-2.45-6.08-5.81-6.18-3.3-.1-6.02,2.45-6.12,5.81l-15.05-.47.37-11.99,3,.09c3.36.1,6.08-2.51,6.18-5.81.1-3.36-2.45-6.08-5.81-6.18l-3-.09.37-11.99,41.98,1.31Z" style="fill:#fff; stroke-width:0px;"/><polygon points="384.75 261.68 380.12 279.07 354.99 272.39 366.31 229.87 420.42 244.27 413.74 269.39 384.75 261.68" style="fill:#00bf02; stroke-width:0px;"/><path d="M363.56,267.42l7.71-28.99,40.59,10.8-3.09,11.6-23.19-6.17c-3.19-.85-6.48,1.01-7.34,4.26l-3.09,11.6-11.6-3.09Z" style="fill:#fff; stroke-width:0px;"/><path d="M353,318.51l4.07-7.53c1.31-2.42.41-5.46-2.01-6.78l-14.12-7.52,12.38-22.86,14.08,7.5c1.3.71,2.8.81,4.16.32.8-.3,1.92-.94,2.66-2.31l4.02-7.42,30.68,16.62-11.54,21.61-10.15-5.5c-.7-.38-1.33-.24-1.65-.12s-.76.37-1.06.93c-.34.62-.24,1.22-.15,1.52.11.37.36.87.95,1.19l10.15,5.49-11.79,21.48-30.68-16.62Z" style="fill:#00bf02; stroke-width:0px;"/><path d="M380.89,325.66l-18.41-9.97.74-1.37c3.14-5.8.97-13.12-4.84-16.26l-7.94-4.23,5.71-10.55,7.94,4.23c5.8,3.14,13.09,1.02,16.26-4.84l.69-1.27,18.41,9.97-4.95,9.26-3.96-2.14c-4.38-2.37-9.83-.75-12.2,3.63-2.34,4.33-.75,9.83,3.63,12.2l3.96,2.14-5.05,9.2Z" style="fill:#fff; stroke-width:0px;"/><polygon points="173.44 420.28 175.47 386.84 176.84 364.42 200.8 365.76 200.8 365.75 201.76 365.81 202.8 365.87 202.79 365.88 226.74 367.45 223.35 423.31 173.44 420.28" style="fill:#00bf02; stroke-width:0px;"/><path d="M186.8,390.04c.15-2.52-1.7-4.61-4.22-4.76l.82-13.47,11.98.67-.27,4.49c-.2,3.35,2.33,6.15,5.62,6.35,3.35.2,6.15-2.27,6.35-5.62l.27-4.49,11.97.79-2.55,41.92-35.93-2.18,1.18-19.46c2.52.15,4.62-1.76,4.76-4.22ZM193.74,399.47c-.2,3.29,2.33,6.15,5.62,6.35,3.35.2,6.15-2.33,6.35-5.62.2-3.35-2.27-6.15-5.62-6.35-3.29-.2-6.15,2.27-6.35,5.62Z" style="fill:#fff; stroke-width:0px;"/><rect x="128.02" y="360.58" width="56" height="50" transform="translate(-258.67 417.85) rotate(-72.42)" style="fill:#00bf02; stroke-width:0px;"/><path d="M132.52,400.16l3.17-10.01,17.16,5.44c1.6.51,3.26-.35,3.77-1.95.49-1.54-.35-3.26-1.95-3.77l-17.16-5.44,2.72-8.58,17.16,5.44c1.6.51,3.26-.35,3.77-1.95.49-1.54-.35-3.26-1.95-3.77l-17.16-5.44,3.17-10.01,34.32,10.87-12.69,40.04-34.32-10.87Z" style="fill:#fff; stroke-width:0px;"/><path d="M78.9,376.92l23.72-37.07,18.53,11.86c.76.49,1.49.3,1.77.2.41-.15.75-.42.99-.8l5.39-8.42,21.9,14.01-30.18,47.17-42.12-26.95Z" style="fill:#00bf02; stroke-width:0px;"/><path d="M88.57,374.8l16.17-25.27,12.64,8.09c4.2,2.68,9.75,1.46,12.43-2.73l1.62-2.53,10.11,6.47-22.64,35.38-30.33-19.41ZM106.76,368.63c-1.81,2.83-.96,6.51,1.82,8.29,2.83,1.81,6.48,1.01,8.29-1.82,1.78-2.78,1.01-6.48-1.82-8.29-2.78-1.78-6.51-.96-8.29,1.82Z" style="fill:#fff; stroke-width:0px;"/><path d="M38.26,334.49l41.46-37.65,33.62,37.02-41.46,37.65-33.62-37.02ZM75.06,332.32c-.23.08-.43.21-.61.37-.5.45-.63,1-.64,1.39-.01.31.03.92.51,1.44.67.74,1.59.75,2.17.54.24-.09.46-.22.66-.4.52-.47.63-1.07.64-1.39.02-.38-.05-.94-.51-1.44-.62-.68-1.58-.74-2.22-.5Z" style="fill:#00bf02; stroke-width:0px;"/><path d="M48.15,334.96l31.09-28.24,24.2,26.65-31.09,28.24-24.2-26.65ZM69.75,327.51c-3.69,3.35-3.92,9.07-.61,12.71,3.35,3.69,9.03,3.96,12.71.61,3.64-3.31,3.96-9.03.61-12.71-3.31-3.64-9.07-3.92-12.71-.61Z" style="fill:#fff; stroke-width:0px;"/><polygon points="13.47 288.62 62.85 262.3 74.25 283.42 74.26 283.41 74.74 284.32 75.2 285.18 75.19 285.18 86.38 306.42 36.99 332.74 13.47 288.62" style="fill:#00bf02; stroke-width:0px;"/><path d="M46.24,284.19c2.22-1.19,3.04-3.86,1.85-6.09l11.91-6.35,5.7,10.56-3.97,2.12c-2.97,1.58-4.02,5.2-2.47,8.12,1.58,2.96,5.15,4.05,8.12,2.47l3.97-2.12,5.59,10.62-37.06,19.76-16.94-31.77,17.21-9.17c1.19,2.22,3.92,3.01,6.09,1.85ZM41.82,295.04c-2.91,1.55-4.02,5.21-2.47,8.12,1.58,2.96,5.2,4.02,8.12,2.47,2.96-1.58,4.05-5.15,2.47-8.12-1.55-2.91-5.15-4.05-8.12-2.47Z" style="fill:#fff; stroke-width:0px;"/>
<path d="M12.45,286.42L0,234.9l25.27-6.11,2,8.26c.32,1.3,1.12,2.4,2.26,3.1,1.14.69,2.48.9,3.78.59l24.3-5.87,6.11,25.27-24.3,5.87c-.19.04-.37.1-.55.17-2.34.86-3.72,3.44-3.13,5.87l2,8.26-25.27,6.11Z" style="fill:#00bf02; stroke-width:0px;"/>
<path d="M20.11,237.25l.35,1.46c1.56,6.47,8.07,10.4,14.48,8.85l17.5-4.23,2.82,11.66-17.5,4.23c-6.42,1.55-10.4,8.07-8.85,14.48l.35,1.46-11.66,2.82-9.16-37.91,11.66-2.82Z" style="fill:#fff; stroke-width:0px;"/>
</g>
<path d="M281.14,149.79c-15.83-15.84-37.71-25.63-61.87-25.63s-46.04,9.79-61.87,25.63c-15.83,15.83-25.63,37.7-25.63,61.87,0,48.32,39.18,87.5,87.5,87.5,24.16,0,46.04-9.79,61.87-25.63,15.83-15.84,25.63-37.71,25.63-61.87s-9.8-46.04-25.63-61.87ZM196.37,240.45l-2.15-8.05h9.72c.13.85.27,1.8.44,2.86.19-1.09.36-2.04.52-2.86h8.73l-2.03,8.05h-15.23Z" style="fill:#00bf02; stroke-width:0px;"/>
<path d="M185.24,171.7h-23.51c-3.28,0-6.23-.16-8-.37v10.25h.04c3.78-.32,4.69-.38,8.07-.38h6.33v27.06c0,3.38-.11,41.2-.43,43.73h11.87c-.33-2.53-.43-40.51-.43-43.73v-27.06h6.06c3.87,0,5.96.11,8.38.38v-10.25c-2.47.27-4.62.37-8.38.37Z" style="fill:#fff; stroke-width:0px;"/><path d="M233.36,205.47c-.04,1.52-.18,2.82-.52,4.56-.08.42-.18.86-.28,1.34l-3.38,16c-.22.86-.59,3.43-.75,4.62q-.33,2.25-.43,3.27c-.7-4.35-1.08-6.12-1.51-7.84l-4.35-16.53c-.69-2.52-1.02-4.03-1.23-5.42h-9.56c-.21,1.5-.53,3.16-1.18,5.58l-4.29,16.64c-.24.86-.52,2.17-.98,4.71h8.73l.95-3.8c.64-2.52,1.28-5.9,1.61-8.1.53,3.54.96,6.01,1.5,8.1l4.08,15.79c.54,2.14.91,4.02,1.13,5.74h10.73c.16-1.29.65-3.33,1.34-5.85l8.59-32.16c.19-.71.38-1.42.56-2.09.52-1.86,1.03-3.5,1.43-4.56h-12.19ZM196.37,240.45l1.03,3.88c.8,3.12,1.07,4.24,1.34,5.8h10.68c.16-1.45.49-3.01,1.18-5.69l1-3.99h-15.23ZM203.2,227.69l-3.44-16.32c-.39-2.04-4.31-18.31-5.1-22.82-.08-.47-.12-.82-.13-1h-12.23c.06.15.16.49.3,1,1.25,4.43,5.54,21.12,6.21,23.57l5.41,20.28h9.72c-.38-2.53-.62-4.1-.74-4.71Z" style="fill:#fff; stroke-width:0px;"/><rect x="170.32" y="163.95" width="8.05" height="41.16" transform="translate(358.87 10.18) rotate(90)" style="fill:#00bf02; stroke-width:0px;"/><rect x="236.97" y="195.71" width="8.05" height="20.58" transform="translate(35 447) rotate(-90)" style="fill:#00bf02; stroke-width:0px;"/><rect x="241.45" y="174.24" width="15.21" height="20.58" transform="translate(64.53 433.58) rotate(-90)" style="fill:#00bf02; stroke-width:0px;"/><polygon points="196.37 240.45 191.34 240.45 191.34 232.4 194.22 232.4 196.37 240.45" style="fill:#00bf02; stroke-width:0px;"/><path d="M204.9,232.4c-.16.82-.33,1.77-.52,2.86-.17-1.06-.31-2.01-.44-2.86h.96Z" style="fill:#00bf02; stroke-width:0px;"/><polygon points="215.5 232.4 215.5 240.45 211.6 240.45 213.63 232.4 215.5 232.4" style="fill:#00bf02; stroke-width:0px;"/>
<path d="M271.56,210.66c-2.41-5.8-3.17-7.62-3.97-9.34-1.72-3.81-2.95-5.04-5.69-5.9,2.63-.86,3.76-1.45,5.1-2.69,2.09-1.98,3.17-4.99,3.17-8.8,0-7.73-5.05-12.24-13.75-12.24h-13.95c-3.65,0-5.64-.05-8-.16.32,2.57.43,4.56.43,7.89v18.14c0,3.95-.11,2.04-.42,4.42,0,.02-.01.04-.01.06h11.54s-.01-.04-.01-.06c-.23-1.77-.35-1.38-.4-2.54h5.46c1.71,0,3.06.43,4.18,1.45,1.34,1.18,1.99,2.42,3.71,7.09,1.66,4.45,13.94,40.76,14.26,42.48h12.56c-1.34-2.85-13.62-38.3-14.21-39.8ZM253.95,190.26h-8.37v-9.55h8.43c3.33,0,5.04,1.55,5.04,4.56s-1.93,4.99-5.1,4.99Z" style="fill:#fff; stroke-width:0px;"/>
</g>
</svg>
